<mxfile host="65bd71144e">
    <diagram id="ID8Cy9hWONPdyymXKLW3" name="Page-1">
        <mxGraphModel dx="624" dy="502" grid="1" gridSize="10" guides="1" tooltips="1" connect="1" arrows="1" fold="1" page="1" pageScale="1" pageWidth="850" pageHeight="1100" math="0" shadow="0">
            <root>
                <mxCell id="0"/>
                <mxCell id="1" parent="0"/>
                <mxCell id="2" value="ADMIN" style="rounded=0;whiteSpace=wrap;html=1;" parent="1" vertex="1">
                    <mxGeometry x="80" y="60" width="120" height="30" as="geometry"/>
                </mxCell>
                <mxCell id="3" value="MANAGER" style="rounded=0;whiteSpace=wrap;html=1;" parent="1" vertex="1">
                    <mxGeometry x="80" y="194" width="120" height="30" as="geometry"/>
                </mxCell>
                <mxCell id="4" value="NURSE" style="rounded=0;whiteSpace=wrap;html=1;" parent="1" vertex="1">
                    <mxGeometry x="80" y="333" width="120" height="30" as="geometry"/>
                </mxCell>
                <mxCell id="5" value="Has&amp;nbsp; full Access (705)" style="text;html=1;align=center;verticalAlign=middle;whiteSpace=wrap;rounded=0;fontColor=light-dark(#fb1818, #ededed);fontSize=9;" parent="1" vertex="1">
                    <mxGeometry x="95" y="92" width="90" height="11" as="geometry"/>
                </mxCell>
                <mxCell id="7" value="" style="shape=table;startSize=0;container=1;collapsible=0;childLayout=tableLayout;fontSize=11;fillColor=none;strokeColor=none;" parent="1" vertex="1">
                    <mxGeometry x="210" y="320" width="350" height="56" as="geometry"/>
                </mxCell>
                <mxCell id="8" value="" style="shape=tableRow;horizontal=0;startSize=0;swimlaneHead=0;swimlaneBody=0;strokeColor=inherit;top=0;left=0;bottom=0;right=0;collapsible=0;dropTarget=0;fillColor=none;points=[[0,0.5],[1,0.5]];portConstraint=eastwest;fontSize=12;" parent="7" vertex="1">
                    <mxGeometry width="350" height="19" as="geometry"/>
                </mxCell>
                <mxCell id="9" value="&lt;font&gt;Create-Delete-Update appointments&amp;nbsp;&lt;/font&gt;&lt;span style=&quot;color: rgb(63, 63, 63);&quot;&gt;(/calendar) CANNOT edit amployees timeOff&lt;/span&gt;" style="shape=partialRectangle;html=1;whiteSpace=wrap;connectable=0;strokeColor=inherit;overflow=hidden;fillColor=none;top=0;left=0;bottom=0;right=0;pointerEvents=1;fontSize=9;align=left;spacingLeft=5;" parent="8" vertex="1">
                    <mxGeometry width="350" height="19" as="geometry">
                        <mxRectangle width="350" height="19" as="alternateBounds"/>
                    </mxGeometry>
                </mxCell>
                <mxCell id="10" value="" style="shape=tableRow;horizontal=0;startSize=0;swimlaneHead=0;swimlaneBody=0;strokeColor=inherit;top=0;left=0;bottom=0;right=0;collapsible=0;dropTarget=0;fillColor=none;points=[[0,0.5],[1,0.5]];portConstraint=eastwest;fontSize=16;" parent="7" vertex="1">
                    <mxGeometry y="19" width="350" height="19" as="geometry"/>
                </mxCell>
                <mxCell id="11" value="&lt;font style=&quot;font-size: 9px;&quot;&gt;Create-Delete-Update users&amp;nbsp;&lt;/font&gt;&lt;span style=&quot;color: rgb(63, 63, 63); font-size: 9px;&quot;&gt;(/customers)&lt;/span&gt;" style="shape=partialRectangle;html=1;whiteSpace=wrap;connectable=0;strokeColor=inherit;overflow=hidden;fillColor=none;top=0;left=0;bottom=0;right=0;pointerEvents=1;fontSize=12;align=left;spacingLeft=5;" parent="10" vertex="1">
                    <mxGeometry width="350" height="19" as="geometry">
                        <mxRectangle width="350" height="19" as="alternateBounds"/>
                    </mxGeometry>
                </mxCell>
                <mxCell id="12" value="" style="shape=tableRow;horizontal=0;startSize=0;swimlaneHead=0;swimlaneBody=0;strokeColor=inherit;top=0;left=0;bottom=0;right=0;collapsible=0;dropTarget=0;fillColor=none;points=[[0,0.5],[1,0.5]];portConstraint=eastwest;fontSize=16;" parent="7" vertex="1">
                    <mxGeometry y="38" width="350" height="18" as="geometry"/>
                </mxCell>
                <mxCell id="13" value="Manage Needs&amp;nbsp;&lt;span style=&quot;color: rgb(63, 63, 63);&quot;&gt;(/needs)&lt;/span&gt;" style="shape=partialRectangle;html=1;whiteSpace=wrap;connectable=0;strokeColor=inherit;overflow=hidden;fillColor=none;top=0;left=0;bottom=0;right=0;pointerEvents=1;fontSize=9;align=left;spacingLeft=5;" parent="12" vertex="1">
                    <mxGeometry width="350" height="18" as="geometry">
                        <mxRectangle width="350" height="18" as="alternateBounds"/>
                    </mxGeometry>
                </mxCell>
                <mxCell id="16" value="" style="shape=table;startSize=0;container=1;collapsible=0;childLayout=tableLayout;fontSize=11;fillColor=none;strokeColor=none;" parent="1" vertex="1">
                    <mxGeometry x="210" y="170" width="270" height="98" as="geometry"/>
                </mxCell>
                <mxCell id="17" value="" style="shape=tableRow;horizontal=0;startSize=0;swimlaneHead=0;swimlaneBody=0;strokeColor=inherit;top=0;left=0;bottom=0;right=0;collapsible=0;dropTarget=0;fillColor=none;points=[[0,0.5],[1,0.5]];portConstraint=eastwest;fontSize=12;" parent="16" vertex="1">
                    <mxGeometry width="270" height="19" as="geometry"/>
                </mxCell>
                <mxCell id="18" value="&lt;font&gt;Create-Delete-Update appointments (/calendar)&lt;/font&gt;" style="shape=partialRectangle;html=1;whiteSpace=wrap;connectable=0;strokeColor=inherit;overflow=hidden;fillColor=none;top=0;left=0;bottom=0;right=0;pointerEvents=1;fontSize=9;align=left;spacingLeft=5;" parent="17" vertex="1">
                    <mxGeometry width="270" height="19" as="geometry">
                        <mxRectangle width="270" height="19" as="alternateBounds"/>
                    </mxGeometry>
                </mxCell>
                <mxCell id="19" value="" style="shape=tableRow;horizontal=0;startSize=0;swimlaneHead=0;swimlaneBody=0;strokeColor=inherit;top=0;left=0;bottom=0;right=0;collapsible=0;dropTarget=0;fillColor=none;points=[[0,0.5],[1,0.5]];portConstraint=eastwest;fontSize=16;" parent="16" vertex="1">
                    <mxGeometry y="19" width="270" height="19" as="geometry"/>
                </mxCell>
                <mxCell id="20" value="&lt;font style=&quot;font-size: 9px;&quot;&gt;Create-Delete-Update users&amp;nbsp;&lt;/font&gt;&lt;span style=&quot;color: rgb(63, 63, 63); font-size: 9px;&quot;&gt;(/customers)&lt;/span&gt;" style="shape=partialRectangle;html=1;whiteSpace=wrap;connectable=0;strokeColor=inherit;overflow=hidden;fillColor=none;top=0;left=0;bottom=0;right=0;pointerEvents=1;fontSize=12;align=left;spacingLeft=5;" parent="19" vertex="1">
                    <mxGeometry width="270" height="19" as="geometry">
                        <mxRectangle width="270" height="19" as="alternateBounds"/>
                    </mxGeometry>
                </mxCell>
                <mxCell id="21" value="" style="shape=tableRow;horizontal=0;startSize=0;swimlaneHead=0;swimlaneBody=0;strokeColor=inherit;top=0;left=0;bottom=0;right=0;collapsible=0;dropTarget=0;fillColor=none;points=[[0,0.5],[1,0.5]];portConstraint=eastwest;fontSize=16;" parent="16" vertex="1">
                    <mxGeometry y="38" width="270" height="20" as="geometry"/>
                </mxCell>
                <mxCell id="22" value="Manage Needs&amp;nbsp;&lt;span style=&quot;color: rgb(63, 63, 63);&quot;&gt;(/needs)&lt;/span&gt;" style="shape=partialRectangle;html=1;whiteSpace=wrap;connectable=0;strokeColor=inherit;overflow=hidden;fillColor=none;top=0;left=0;bottom=0;right=0;pointerEvents=1;fontSize=9;align=left;spacingLeft=5;" parent="21" vertex="1">
                    <mxGeometry width="270" height="20" as="geometry">
                        <mxRectangle width="270" height="20" as="alternateBounds"/>
                    </mxGeometry>
                </mxCell>
                <mxCell id="34" style="shape=tableRow;horizontal=0;startSize=0;swimlaneHead=0;swimlaneBody=0;strokeColor=inherit;top=0;left=0;bottom=0;right=0;collapsible=0;dropTarget=0;fillColor=none;points=[[0,0.5],[1,0.5]];portConstraint=eastwest;fontSize=16;" parent="16" vertex="1">
                    <mxGeometry y="58" width="270" height="20" as="geometry"/>
                </mxCell>
                <mxCell id="35" value="&lt;span style=&quot;color: rgb(0, 0, 0);&quot;&gt;Manage Expenses/Incomes/Savings(/manager-dashbord)&lt;/span&gt;" style="shape=partialRectangle;html=1;whiteSpace=wrap;connectable=0;strokeColor=inherit;overflow=hidden;fillColor=none;top=0;left=0;bottom=0;right=0;pointerEvents=1;fontSize=9;align=left;spacingLeft=5;" parent="34" vertex="1">
                    <mxGeometry width="270" height="20" as="geometry">
                        <mxRectangle width="270" height="20" as="alternateBounds"/>
                    </mxGeometry>
                </mxCell>
                <mxCell id="55" style="shape=tableRow;horizontal=0;startSize=0;swimlaneHead=0;swimlaneBody=0;strokeColor=inherit;top=0;left=0;bottom=0;right=0;collapsible=0;dropTarget=0;fillColor=none;points=[[0,0.5],[1,0.5]];portConstraint=eastwest;fontSize=16;" vertex="1" parent="16">
                    <mxGeometry y="78" width="270" height="20" as="geometry"/>
                </mxCell>
                <mxCell id="56" value="manage packages (/packages)" style="shape=partialRectangle;html=1;whiteSpace=wrap;connectable=0;strokeColor=inherit;overflow=hidden;fillColor=none;top=0;left=0;bottom=0;right=0;pointerEvents=1;fontSize=9;align=left;spacingLeft=5;" vertex="1" parent="55">
                    <mxGeometry width="270" height="20" as="geometry">
                        <mxRectangle width="270" height="20" as="alternateBounds"/>
                    </mxGeometry>
                </mxCell>
                <mxCell id="36" value="" style="shape=table;startSize=0;container=1;collapsible=0;childLayout=tableLayout;fontSize=11;fillColor=none;strokeColor=none;" parent="1" vertex="1">
                    <mxGeometry x="210" y="10" width="270" height="118" as="geometry"/>
                </mxCell>
                <mxCell id="37" value="" style="shape=tableRow;horizontal=0;startSize=0;swimlaneHead=0;swimlaneBody=0;strokeColor=inherit;top=0;left=0;bottom=0;right=0;collapsible=0;dropTarget=0;fillColor=none;points=[[0,0.5],[1,0.5]];portConstraint=eastwest;fontSize=12;" parent="36" vertex="1">
                    <mxGeometry width="270" height="19" as="geometry"/>
                </mxCell>
                <mxCell id="38" value="&lt;font&gt;Create-Delete-Update appointments (/calendar)&lt;/font&gt;" style="shape=partialRectangle;html=1;whiteSpace=wrap;connectable=0;strokeColor=inherit;overflow=hidden;fillColor=none;top=0;left=0;bottom=0;right=0;pointerEvents=1;fontSize=9;align=left;spacingLeft=5;" parent="37" vertex="1">
                    <mxGeometry width="270" height="19" as="geometry">
                        <mxRectangle width="270" height="19" as="alternateBounds"/>
                    </mxGeometry>
                </mxCell>
                <mxCell id="39" value="" style="shape=tableRow;horizontal=0;startSize=0;swimlaneHead=0;swimlaneBody=0;strokeColor=inherit;top=0;left=0;bottom=0;right=0;collapsible=0;dropTarget=0;fillColor=none;points=[[0,0.5],[1,0.5]];portConstraint=eastwest;fontSize=16;" parent="36" vertex="1">
                    <mxGeometry y="19" width="270" height="19" as="geometry"/>
                </mxCell>
                <mxCell id="40" value="&lt;font style=&quot;font-size: 9px;&quot;&gt;Create-Delete-Update users&amp;nbsp;&lt;/font&gt;&lt;span style=&quot;color: rgb(63, 63, 63); font-size: 9px;&quot;&gt;(/customers)&lt;/span&gt;" style="shape=partialRectangle;html=1;whiteSpace=wrap;connectable=0;strokeColor=inherit;overflow=hidden;fillColor=none;top=0;left=0;bottom=0;right=0;pointerEvents=1;fontSize=12;align=left;spacingLeft=5;" parent="39" vertex="1">
                    <mxGeometry width="270" height="19" as="geometry">
                        <mxRectangle width="270" height="19" as="alternateBounds"/>
                    </mxGeometry>
                </mxCell>
                <mxCell id="41" value="" style="shape=tableRow;horizontal=0;startSize=0;swimlaneHead=0;swimlaneBody=0;strokeColor=inherit;top=0;left=0;bottom=0;right=0;collapsible=0;dropTarget=0;fillColor=none;points=[[0,0.5],[1,0.5]];portConstraint=eastwest;fontSize=16;" parent="36" vertex="1">
                    <mxGeometry y="38" width="270" height="20" as="geometry"/>
                </mxCell>
                <mxCell id="42" value="Manage Needs&amp;nbsp;&lt;span style=&quot;color: rgb(63, 63, 63);&quot;&gt;(/needs)&lt;/span&gt;" style="shape=partialRectangle;html=1;whiteSpace=wrap;connectable=0;strokeColor=inherit;overflow=hidden;fillColor=none;top=0;left=0;bottom=0;right=0;pointerEvents=1;fontSize=9;align=left;spacingLeft=5;" parent="41" vertex="1">
                    <mxGeometry width="270" height="20" as="geometry">
                        <mxRectangle width="270" height="20" as="alternateBounds"/>
                    </mxGeometry>
                </mxCell>
                <mxCell id="43" style="shape=tableRow;horizontal=0;startSize=0;swimlaneHead=0;swimlaneBody=0;strokeColor=inherit;top=0;left=0;bottom=0;right=0;collapsible=0;dropTarget=0;fillColor=none;points=[[0,0.5],[1,0.5]];portConstraint=eastwest;fontSize=16;" parent="36" vertex="1">
                    <mxGeometry y="58" width="270" height="20" as="geometry"/>
                </mxCell>
                <mxCell id="44" value="&lt;span style=&quot;color: rgb(0, 0, 0);&quot;&gt;Manage Expenses/Incomes/Savings (/admin-dashbord)&lt;/span&gt;" style="shape=partialRectangle;html=1;whiteSpace=wrap;connectable=0;strokeColor=inherit;overflow=hidden;fillColor=none;top=0;left=0;bottom=0;right=0;pointerEvents=1;fontSize=9;align=left;spacingLeft=5;" parent="43" vertex="1">
                    <mxGeometry width="270" height="20" as="geometry">
                        <mxRectangle width="270" height="20" as="alternateBounds"/>
                    </mxGeometry>
                </mxCell>
                <mxCell id="53" style="shape=tableRow;horizontal=0;startSize=0;swimlaneHead=0;swimlaneBody=0;strokeColor=inherit;top=0;left=0;bottom=0;right=0;collapsible=0;dropTarget=0;fillColor=none;points=[[0,0.5],[1,0.5]];portConstraint=eastwest;fontSize=16;" parent="36" vertex="1">
                    <mxGeometry y="78" width="270" height="20" as="geometry"/>
                </mxCell>
                <mxCell id="54" value="&lt;span style=&quot;color: rgb(0, 0, 0);&quot;&gt;Manage Emplyees and roles (/employees)&lt;/span&gt;" style="shape=partialRectangle;html=1;whiteSpace=wrap;connectable=0;strokeColor=inherit;overflow=hidden;fillColor=none;top=0;left=0;bottom=0;right=0;pointerEvents=1;fontSize=9;align=left;spacingLeft=5;" parent="53" vertex="1">
                    <mxGeometry width="270" height="20" as="geometry">
                        <mxRectangle width="270" height="20" as="alternateBounds"/>
                    </mxGeometry>
                </mxCell>
                <mxCell id="57" style="shape=tableRow;horizontal=0;startSize=0;swimlaneHead=0;swimlaneBody=0;strokeColor=inherit;top=0;left=0;bottom=0;right=0;collapsible=0;dropTarget=0;fillColor=none;points=[[0,0.5],[1,0.5]];portConstraint=eastwest;fontSize=16;" vertex="1" parent="36">
                    <mxGeometry y="98" width="270" height="20" as="geometry"/>
                </mxCell>
                <mxCell id="58" value="&lt;span style=&quot;color: rgb(0, 0, 0);&quot;&gt;manage packages (/packages)&lt;/span&gt;" style="shape=partialRectangle;html=1;whiteSpace=wrap;connectable=0;strokeColor=inherit;overflow=hidden;fillColor=none;top=0;left=0;bottom=0;right=0;pointerEvents=1;fontSize=9;align=left;spacingLeft=5;" vertex="1" parent="57">
                    <mxGeometry width="270" height="20" as="geometry">
                        <mxRectangle width="270" height="20" as="alternateBounds"/>
                    </mxGeometry>
                </mxCell>
                <mxCell id="48" value="531" style="text;html=1;align=center;verticalAlign=middle;whiteSpace=wrap;rounded=0;fontColor=light-dark(#fb1818, #ededed);fontSize=12;" parent="1" vertex="1">
                    <mxGeometry x="95" y="180" width="90" height="11" as="geometry"/>
                </mxCell>
                <mxCell id="52" value="705" style="text;html=1;align=center;verticalAlign=middle;whiteSpace=wrap;rounded=0;fontColor=light-dark(#fb1818, #ededed);fontSize=12;" parent="1" vertex="1">
                    <mxGeometry x="95" y="49" width="90" height="11" as="geometry"/>
                </mxCell>
                <mxCell id="59" value="" style="edgeStyle=none;html=1;exitX=0.5;exitY=0;exitDx=0;exitDy=0;" edge="1" parent="1" source="4" target="51">
                    <mxGeometry relative="1" as="geometry">
                        <mxPoint x="139.66666666666674" y="269.83333333333337" as="targetPoint"/>
                        <mxPoint x="140" y="333" as="sourcePoint"/>
                    </mxGeometry>
                </mxCell>
                <mxCell id="51" value="&lt;div style=&quot;font-family: Consolas, &amp;quot;Courier New&amp;quot;, monospace; line-height: 16px; white-space: pre;&quot;&gt;&lt;span style=&quot;background-color: light-dark(rgb(255, 255, 255), rgb(223, 226, 231));&quot;&gt;&lt;font style=&quot;color: rgb(255, 51, 51);&quot;&gt;324&lt;/font&gt;&lt;/span&gt;&lt;/div&gt;" style="text;html=1;align=center;verticalAlign=middle;whiteSpace=wrap;rounded=0;fontColor=light-dark(#fb1818, #ededed);fontSize=12;" parent="1" vertex="1">
                    <mxGeometry x="95" y="308" width="90" height="12" as="geometry"/>
                </mxCell>
            </root>
        </mxGraphModel>
    </diagram>
</mxfile>